# xmcd
#
# Track frame offsets: 
#        150
#        17050
#        36243
#        51673
#        68528
#        86083
#        102940
#        118421
#        133695
#        146913
#        163137
#
# Disc length: 2548 seconds
#
# Revision: 1
# Processed by: cddbd v1.5.2PL0 Copyright (c) Steve Scherf et al.
# Submitted via: ExactAudioCopyFreeDBPlugin 1.0
#
DISCID=a609f20b
DTITLE=Aloe Blacc - Lift Your Spirit
DYEAR=2013
DGENRE=Hip-Hop
TTITLE0=Wake Me Up (Acoustic)
TTITLE1=The Man
TTITLE2=Soldier In The City
TTITLE3=Love Is The Answer
TTITLE4=Here Today
TTITLE5=Wanna Be With You
TTITLE6=Lift Your Spirit
TTITLE7=Red Velvet Seat
TTITLE8=Can You Do This
TTITLE9=Ticking Bomb
TTITLE10=Eyes Of A Child
EXTD=
EXTT0=
EXTT1=
EXTT2=
EXTT3=
EXTT4=
EXTT5=
EXTT6=
EXTT7=
EXTT8=
EXTT9=
EXTT10=
PLAYORDER=
